<svg width="30" height="30" viewBox="0 0 30 30" fill="none" xmlns="http://www.w3.org/2000/svg">
<path fill-rule="evenodd" clip-rule="evenodd" d="M15 0C6.71573 0 0 6.71573 0 15C0 23.2843 6.71573 30 15 30C23.2843 30 30 23.2843 30 15C30 6.71573 23.2843 0 15 0ZM11.702 7.04835C12.5554 7.00952 12.8281 7.00002 15.0007 7.00002H14.9982C17.1716 7.00002 17.4433 7.00952 18.2966 7.04835C19.1483 7.08735 19.73 7.22219 20.24 7.42002C20.7666 7.62419 21.2116 7.89753 21.6566 8.34253C22.1016 8.7872 22.375 9.23354 22.58 9.75971C22.7767 10.2684 22.9117 10.8497 22.9517 11.7014C22.99 12.5547 23 12.8274 23 15.0001C23 17.1728 22.99 17.4448 22.9517 18.2981C22.9117 19.1495 22.7767 19.731 22.58 20.2398C22.375 20.7658 22.1016 21.2122 21.6566 21.6568C21.2121 22.1018 20.7665 22.3758 20.2405 22.5802C19.7315 22.778 19.1495 22.9128 18.2978 22.9518C17.4444 22.9907 17.1726 23.0002 14.9997 23.0002C12.8272 23.0002 12.5547 22.9907 11.7014 22.9518C10.8499 22.9128 10.2684 22.778 9.75936 22.5802C9.23352 22.3758 8.78718 22.1018 8.34268 21.6568C7.89784 21.2122 7.6245 20.7658 7.42 20.2397C7.22233 19.731 7.0875 19.1496 7.04833 18.298C7.00966 17.4446 7 17.1728 7 15.0001C7 12.8274 7.01 12.5546 7.04816 11.7012C7.0865 10.8499 7.2215 10.2684 7.41983 9.75955C7.62484 9.23354 7.89817 8.7872 8.34318 8.34253C8.78785 7.89769 9.23418 7.62436 9.76036 7.42002C10.269 7.22219 10.8504 7.08735 11.702 7.04835Z" fill="white"/>
<path fill-rule="evenodd" clip-rule="evenodd" d="M14.2831 8.4417C14.4224 8.44148 14.5723 8.44155 14.7341 8.44162L15.0008 8.4417C17.1368 8.4417 17.3899 8.44936 18.2335 8.4877C19.0135 8.52336 19.4368 8.6537 19.7188 8.7632C20.0921 8.9082 20.3583 9.08154 20.6381 9.36154C20.9181 9.64154 21.0915 9.90821 21.2368 10.2815C21.3463 10.5632 21.4768 10.9866 21.5123 11.7666C21.5507 12.6099 21.559 12.8632 21.559 14.9983C21.559 17.1333 21.5507 17.3866 21.5123 18.23C21.4767 19.01 21.3463 19.4333 21.2368 19.715C21.0918 20.0883 20.9181 20.3542 20.6381 20.634C20.3581 20.914 20.0923 21.0873 19.7188 21.2323C19.4371 21.3423 19.0135 21.4723 18.2335 21.508C17.3901 21.5463 17.1368 21.5547 15.0008 21.5547C12.8646 21.5547 12.6114 21.5463 11.7681 21.508C10.988 21.472 10.5647 21.3417 10.2825 21.2322C9.9092 21.0872 9.64253 20.9138 9.36253 20.6338C9.08253 20.3538 8.90919 20.0878 8.76386 19.7143C8.65435 19.4326 8.52385 19.0093 8.48835 18.2293C8.45002 17.386 8.44235 17.1326 8.44235 14.9963C8.44235 12.8599 8.45002 12.6079 8.48835 11.7646C8.52402 10.9846 8.65435 10.5612 8.76386 10.2792C8.90886 9.90588 9.08253 9.63921 9.36253 9.35921C9.64253 9.0792 9.9092 8.90587 10.2825 8.76053C10.5645 8.65053 10.988 8.52053 11.7681 8.4847C12.5061 8.45136 12.7921 8.44136 14.2831 8.4397V8.4417ZM19.2711 9.77008C18.7411 9.77008 18.3111 10.1996 18.3111 10.7298C18.3111 11.2598 18.7411 11.6898 19.2711 11.6898C19.8011 11.6898 20.2311 11.2598 20.2311 10.7298C20.2311 10.1998 19.8011 9.76975 19.2711 9.76975V9.77008ZM10.8924 15.0001C10.8924 12.7313 12.7318 10.8918 15.0006 10.8917C17.2694 10.8917 19.1085 12.7312 19.1085 15.0001C19.1085 17.2689 17.2696 19.1076 15.0008 19.1076C12.7319 19.1076 10.8924 17.2689 10.8924 15.0001Z" fill="white"/>
<path d="M15.0007 12.3334C16.4734 12.3334 17.6674 13.5272 17.6674 15.0001C17.6674 16.4728 16.4734 17.6668 15.0007 17.6668C13.5279 17.6668 12.334 16.4728 12.334 15.0001C12.334 13.5272 13.5279 12.3334 15.0007 12.3334Z" fill="white"/>
</svg>
