<svg width="25" height="24" viewBox="0 0 25 24" fill="none" xmlns="http://www.w3.org/2000/svg">
<path d="M12.6 0.173096C6.0569 0.173096 0.755554 5.4666 0.755554 12C0.755554 18.5334 6.0569 23.8269 12.6 23.8269C19.1431 23.8269 24.4444 18.5334 24.4444 12C24.4444 5.4666 19.1431 0.173096 12.6 0.173096ZM12.6 4.75126C14.9211 4.75126 16.8029 6.63021 16.8029 8.94791C16.8029 11.2656 14.9211 13.1446 12.6 13.1446C10.2789 13.1446 8.39713 11.2656 8.39713 8.94791C8.39713 6.63021 10.2789 4.75126 12.6 4.75126ZM12.6 21.1563C9.7965 21.1563 7.28433 19.8878 5.60318 17.9039C6.50107 16.2157 8.25863 15.0521 10.3075 15.0521C10.4221 15.0521 10.5368 15.0712 10.6466 15.1046C11.2675 15.3049 11.917 15.4336 12.6 15.4336C13.283 15.4336 13.9373 15.3049 14.5534 15.1046C14.6632 15.0712 14.7778 15.0521 14.8925 15.0521C16.9414 15.0521 18.6989 16.2157 19.5968 17.9039C17.9157 19.8878 15.4035 21.1563 12.6 21.1563Z" fill="#2C2C2C"/>
</svg>
